<?xml version="1.0" encoding="utf-8"?>
<!-- Generator: Adobe Illustrator 16.0.0, SVG Export Plug-In . SVG Version: 6.00 Build 0)  -->
<!DOCTYPE svg PUBLIC "-//W3C//DTD SVG 1.1//EN" "http://www.w3.org/Graphics/SVG/1.1/DTD/svg11.dtd">
<svg version="1.1" id="Layer_1" xmlns="http://www.w3.org/2000/svg" xmlns:xlink="http://www.w3.org/1999/xlink" x="0px" y="0px"
	 width="1280px" height="1230px" viewBox="0 0 1280 1230" enable-background="new 0 0 1280 1230" xml:space="preserve">
<path fill-rule="evenodd" clip-rule="evenodd" fill="#017C84" d="M906,0c150.121-3.004,237.365,75.427,281,179
	c3.857,9.155,8.958,20.016,12,30c0.667,5.666,1.333,11.334,2,17c7.365,31.299,9.164,87.584,1,120c-6.055,24.041-10.002,47.687-19,69
	c-41.426,98.127-119.913,180.211-200,240c-11.311,8.444-21.585,19.605-33,28c-38.977,28.663-76.924,58.843-116,87
	c-29.045,20.929-56.477,42.701-85,64c-10.566,7.89-19.523,19.081-30,27c-11.423,8.634-33.465,25.566-41,37c-0.333,0-0.667,0-1,0
	c0-0.333,0-0.667,0-1c-5.481-5.187-9.412-11.897-14-18c-7.157-9.52-16.695-17.335-24-27c-6.989-9.247-20.593-20.891-30-28
	c-7.645-5.777-13.33-15.198-21-21c-19.258-14.569-36.624-31.756-56-46c-43.92-32.287-87.624-65.682-132-97
	c-98.291-69.368-185.859-146.125-227-273c-5.678-17.512-6.664-36.455-11-55c-0.333-6.666-0.667-13.334-1-20
	c-8.541-39.942,2.626-82.08,14-109c35.29-83.524,88.971-138.24,172-174c36.801-15.85,109.11-32.659,162-19
	c52.415,13.536,94.412,31.424,132,59c16.665,12.226,29.187,28.936,44,43c0-0.333,0-0.667,0-1c8.999-9.666,18.001-19.334,27-29
	c27.566-20.892,53.943-42.137,88-57c19.999-8.727,42.399-14.28,65-20C878.665,3.333,892.334,1.667,906,0z"/>
<path fill-rule="evenodd" clip-rule="evenodd" fill="#017C84" d="M778,1102c-8.648-0.897-17.258-4.768-25-7
	c-24.485-7.06-49.156-9.929-72-17c-40.167-12.433-81.712-19.053-121-31c-8.931-2.716-16.276-2.344-25-5
	c-20.364-6.201-50.748-15.156-73-17c0,0.333,0,0.667,0,1c4.058,3.499,3.358,9.986,10,11c28.331,6.666,56.669,13.334,85,20
	c49.899,15.313,103.082,24.813,153,40c25.368,7.718,51.488,9.276,75,18c24.141,8.957,47.41,17.769,72,27
	c7.404,2.78,18.91,10.382,31,7c19.581-5.477,25.885-23.568,31-44c0.838-3.349,2.826-10.899,2-15c-1.498-7.432-3.376-15.542-4-23
	c17.938-1.881,41.42-11.66,57-18c27.421-11.159,63.139-16.487,87-31c25.175-15.312,46.302-35.368,70-52
	c21.694-15.225,53.958-37.013,84-15c7.445,5.455,6.329,17.849,3,28c-6.489,19.79-16,36.995-26,53
	c-25.163,40.272-59.521,67.133-100,92c-13.085,8.039-26.776,12.966-40,21c-17.463,10.609-36.611,21.596-56,30
	c-12.983,5.627-27.644,9.394-42,13c-8.86,2.226-18.641,1.114-27,3c-6,0-12,0-18,0c-16.334,3.636-36.965,0.38-53,4
	c-19.998,1-40.002,2-60,3c-12.366,2.752-26.555,0.003-40,3c-25.664,3.333-51.336,6.667-77,10c-16.466,3.896-60.71,12.748-79,8
	c-27.755-7.205-50.955-21.604-78-30c-31.654-9.826-63.464-12.714-95-23c-54.313-17.714-111.33-30.268-166-47
	c-19.604-6-39.47-5.031-61-10c-23.781-5.489-57.099-7.984-84-8c-19.681-0.011-60.641,5.019-68-6c-15.027-22.5-9.992-60.09-17-91
	c-0.333-7.333-0.667-14.667-1-22c-7.555-33.201-9.251-68.756-17-101c-1-9.999-2-20.001-3-30c-3.333-14.332-6.667-28.668-10-43
	c17.243-10.198,40.241-14.057,61-21c37.533-12.553,75.822-23.271,115-36c14.088-4.577,30.081-9.132,45-13
	c6.333-0.333,12.667-0.667,19-1c1.33-0.276,5.117-1.64,8-1c5.305,1.177,13.2,0.494,19,2c24.729,6.419,49.659,10.247,73,19
	c20.404,7.651,41.227,19.275,61,28c10.88,4.801,22.023,7.937,32,14c27.075,16.453,53.049,32.677,78,51
	c12.819,9.414,22.453,23.206,38,30c8.666,2.667,17.334,5.333,26,8c12.767,5.456,25.491,13.549,40,18c10.035,3.078,18.911,2.3,28,6
	c16.438,6.691,33.506,14.484,51,21c32.315,12.037,64.139,18.527,91,35c38.566,23.651,101.758,55.349,120,97
	c9.479,21.643,3.834,49.149-7,64c-4.844,6.639-16.751,15.166-27,7c-1.083-0.909-0.085,0.078-1-1c5.899-4.587,6.164-13.217,9-21
	c14.697-40.331-7.504-62.59-36-78c-6.871-3.716-17.633-11.392-31-8C789.832,1033.624,777.889,1073.888,778,1102z"/>
<path fill-rule="evenodd" clip-rule="evenodd" fill="#017C84" d="M1101,930c20.362-0.529,32.208,6.272,44,14c0,0.667,0,1.333,0,2
	c-8.421,2.177-14.641,9.509-21,14c-20.707,14.625-39.711,31.708-61,45c-18.967,11.842-42.558,16.531-65,25
	c-27.091,10.224-56.347,20.899-86,28c-4.195-13.52-19.219-21.791-23-32c12.075-1.237,24.328-7.392,35-11
	c25.582-8.65,54.323-12.79,76-26c12.126-7.39,25.267-14.616,37-23c8.219-5.873,15.346-14.5,24-20c7.466-4.746,17.89-8.646,26-12
	C1091.529,932.127,1097.171,932.596,1101,930z"/>
<path fill-rule="evenodd" clip-rule="evenodd" fill="#017C84" d="M928,943c31.972-0.915,62.634,11.182,49,44
	c-22.085,9.5-47.958,16.345-71,24c-4.298,1.428-25.997,7.002-26,7c-8.531-2.899-15.869-12.972-23-18
	c-8.751-6.17-22.556-10.601-29-19c0.333,0,0.667,0,1,0c10.731-7.915,31.084-11.29,45-16c13.928-4.714,25.927-12.525,38-18
	C916.544,944.939,923.898,945.773,928,943z"/>
<path fill-rule="evenodd" clip-rule="evenodd" fill="#017C84" d="M1230,969c28.286,0.041,51.602,30.088,35,58
	c-11.405,19.174-33.552,27.626-55,37c-13.844,6.05-27.775,15.237-44,19c0-0.667,0-1.333,0-2c11.294-7.662,19.125-20.788,27-32
	C1207.894,1027.794,1227.274,1001.019,1230,969z"/>
</svg>
